<svg t="1742060946217" class="icon" viewBox="0 0 1024 1024" version="1.1" xmlns="http://www.w3.org/2000/svg" p-id="1562"
    width="1024" height="1024">
    <path d="M512 0c282.76736 0 512 229.23264 512 512s-229.23264 512-512 512S0 794.76736 0 512 229.23264 0 512 0z"
        fill="#E2574C" p-id="1563"></path>
    <path d="M981.27872 716.8H42.72128C121.74336 897.59744 302.06976 1024 512 1024s390.25664-126.40256 469.27872-307.2z"
        fill="#CB4E44" p-id="1564"></path>
    <path
        d="M225.28 245.76h573.44a20.48 20.48 0 0 1 20.48 20.48v471.04a20.48 20.48 0 0 1-20.48 20.48H225.28a20.48 20.48 0 0 1-20.48-20.48V266.24a20.48 20.48 0 0 1 20.48-20.48z"
        fill="#EDEDED" p-id="1565"></path>
    <path
        d="M337.92 675.84a20.48 20.48 0 1 0 0.01024 40.97024A20.48 20.48 0 0 0 337.92 675.84z m71.68 0a20.48 20.48 0 1 0 0.01024 40.97024A20.48 20.48 0 0 0 409.6 675.84z m71.68 0a20.48 20.48 0 1 0 0.01024 40.97024A20.48 20.48 0 0 0 481.28 675.84z"
        fill="#CCD0D2" p-id="1566"></path>
    <path d="M266.24 675.84a20.48 20.48 0 1 1-0.01024 40.97024A20.48 20.48 0 0 1 266.24 675.84z" fill="#3DB39E"
        p-id="1567"></path>
    <path d="M747.52 665.6a30.72 30.72 0 1 1 0 61.44 30.72 30.72 0 0 1 0-61.44z" fill="#4681A0" p-id="1568"></path>
    <path
        d="M266.24 286.72h491.52a20.48 20.48 0 0 1 20.48 20.48v307.2a20.48 20.48 0 0 1-20.48 20.48H266.24a20.48 20.48 0 0 1-20.48-20.48V307.2a20.48 20.48 0 0 1 20.48-20.48z"
        fill="#324D5B" p-id="1569"></path>
    <path
        d="M685.01504 545.82272c-1.4336 4.17792-5.46816 7.00416-9.99424 7.00416h-0.14336a10.52672 10.52672 0 0 1-9.9328-7.26016l-42.21952-135.2192-36.70016 93.58336c-1.4848 3.7888-5.14048 6.36928-9.29792 6.56384a10.50624 10.50624 0 0 1-9.95328-5.632l-23.99232-44.38016h-57.77408l-29.22496 85.25824c-1.41312 4.25984-5.84704 7.00416-10.11712 7.07584a10.51648 10.51648 0 0 1-9.97376-7.26016l-42.22976-135.2192-36.68992 93.58336c-1.4848 3.7888-5.15072 6.36928-9.30816 6.56384a10.5472 10.5472 0 0 1-9.94304-5.632l-23.99232-43.84768H245.76v-20.44928h74.2912c3.98336 0 7.6288 1.35168 9.41056 4.80256l16.1792 29.51168 39.12704-99.77856a10.21952 10.21952 0 0 1 10.19904-6.58432c4.49536 0.16384 8.3968 3.06176 9.71776 7.23968l41.43104 132.68992 21.22752-61.32736c1.41312-4.21888 5.45792-7.07584 10.02496-7.07584h71.92576c3.9936 0 7.6288 2.2016 9.41056 5.65248l16.1792 29.19424 39.13728-99.77856c1.5872-4.10624 5.71392-6.9632 10.1888-6.58432 4.5056 0.16384 8.40704 3.072 9.70752 7.23968l41.5744 133.12 21.11488-61.52192c1.4336-4.18816 5.45792-7.00416 9.99424-7.00416H778.24V460.8h-64.0512l-29.17376 85.02272z"
        fill="#3DB39E" p-id="1570"></path>
    <path
        d="M798.72 737.28H225.28a20.48 20.48 0 0 1-20.48-20.48v20.48a20.48 20.48 0 0 0 20.48 20.48h573.44a20.48 20.48 0 0 0 20.48-20.48v-20.48a20.48 20.48 0 0 1-20.48 20.48z"
        fill="#CCD0D2" p-id="1571"></path>
    <path d="M266.24 286.72a20.48 20.48 0 0 0-20.48 20.48v307.2a20.48 20.48 0 0 0 20.48 20.48h245.76V286.72H266.24z"
        fill="#2D4552" p-id="1572"></path>
    <path
        d="M337.54112 504.86272c1.86368 3.60448 5.61152 5.7856 9.94304 5.632 4.15744-0.2048 7.8336-2.77504 9.30816-6.56384l36.68992-93.58336 42.22976 135.2192c1.34144 4.27008 5.376 7.2192 9.97376 7.26016 4.27008-0.08192 8.71424-2.816 10.11712-7.07584l29.22496-85.25824H512v-20.43904h-34.63168c-4.5568 0-8.61184 2.85696-10.02496 7.07584l-21.22752 61.32736-41.43104-132.68992a10.52672 10.52672 0 0 0-9.71776-7.23968 10.24 10.24 0 0 0-10.19904 6.58432l-39.12704 99.77856-16.1792-29.51168c-1.78176-3.45088-5.4272-4.80256-9.41056-4.80256H245.76v20.44928h67.7888l23.99232 43.83744z"
        fill="#37A18E" p-id="1573"></path>
    <path
        d="M757.76 614.4H266.24a20.48 20.48 0 0 1-20.48-20.48v20.48a20.48 20.48 0 0 0 20.48 20.48h491.52a20.48 20.48 0 0 0 20.48-20.48v-20.48a20.48 20.48 0 0 1-20.48 20.48z"
        fill="#2D4552" p-id="1574"></path>
    <path d="M266.24 614.4a20.48 20.48 0 0 1-20.48-20.48v20.48a20.48 20.48 0 0 0 20.48 20.48h245.76v-20.48H266.24z"
        fill="#283E4A" p-id="1575"></path>
</svg>